o Torus
v 1.1399999856948853 0 0
v 0.9872689843177795 0.5699999928474426 0
v 0.5699999928474426 0.9872689843177795 0
v 6.980486530339865e-17 1.1399999856948853 0
v -0.5699999928474426 0.9872689843177795 0
v -0.9872689843177795 0.5699999928474426 0
v -1.1399999856948853 1.396097306067973e-16 0
v -0.9872689843177795 -0.5699999928474426 0
v -0.5699999928474426 -0.9872689843177795 0
v -2.0941460252764084e-16 -1.1399999856948853 0
v 0.5699999928474426 -0.9872689843177795 0
v 0.9872689843177795 -0.5699999928474426 0
v 1.1399999856948853 -2.792194612135946e-16 0
v 1.0432623624801636 0 0.13314791023731232
v 0.903491735458374 0.5216311812400818 0.13314791023731232
v 0.5216311812400818 0.903491735458374 0.13314791023731232
v 6.388139846712681e-17 1.0432623624801636 0.13314791023731232
v -0.5216311812400818 0.903491735458374 0.13314791023731232
v -0.903491735458374 0.5216311812400818 0.13314791023731232
v -1.0432623624801636 1.2776279693425363e-16 0.13314791023731232
v -0.903491735458374 -0.5216311812400818 0.13314791023731232
v -0.5216311812400818 -0.903491735458374 0.13314791023731232
v -1.9164419540138044e-16 -1.0432623624801636 0.13314791023731232
v 0.5216311812400818 -0.903491735458374 0.13314791023731232
v 0.903491735458374 -0.5216311812400818 0.13314791023731232
v 1.0432623624801636 -2.5552559386850726e-16 0.13314791023731232
v 0.8867376446723938 0 0.0822899341583252
v 0.7679373025894165 0.4433688223361969 0.0822899341583252
v 0.4433688223361969 0.7679373025894165 0.0822899341583252
v 5.4297018836874943e-17 0.8867376446723938 0.0822899341583252
v -0.4433688223361969 0.7679373025894165 0.0822899341583252
v -0.7679373025894165 0.4433688223361969 0.0822899341583252
v -0.8867376446723938 1.0859403767374989e-16 0.0822899341583252
v -0.7679373025894165 -0.4433688223361969 0.0822899341583252
v -0.4433688223361969 -0.7679373025894165 0.0822899341583252
v -1.6289105320190238e-16 -0.8867376446723938 0.0822899341583252
v 0.4433688223361969 -0.7679373025894165 0.0822899341583252
v 0.7679373025894165 -0.4433688223361969 0.0822899341583252
v 0.8867376446723938 -2.1718807534749977e-16 0.0822899341583252
v 0.8867376446723938 0 -0.0822899341583252
v 0.7679373025894165 0.4433688223361969 -0.0822899341583252
v 0.4433688223361969 0.7679373025894165 -0.0822899341583252
v 5.4297018836874943e-17 0.8867376446723938 -0.0822899341583252
v -0.4433688223361969 0.7679373025894165 -0.0822899341583252
v -0.7679373025894165 0.4433688223361969 -0.0822899341583252
v -0.8867376446723938 1.0859403767374989e-16 -0.0822899341583252
v -0.7679373025894165 -0.4433688223361969 -0.0822899341583252
v -0.4433688223361969 -0.7679373025894165 -0.0822899341583252
v -1.6289105320190238e-16 -0.8867376446723938 -0.0822899341583252
v 0.4433688223361969 -0.7679373025894165 -0.0822899341583252
v 0.7679373025894165 -0.4433688223361969 -0.0822899341583252
v 0.8867376446723938 -2.1718807534749977e-16 -0.0822899341583252
v 1.0432623624801636 0 -0.13314791023731232
v 0.903491735458374 0.5216311812400818 -0.13314791023731232
v 0.5216311812400818 0.903491735458374 -0.13314791023731232
v 6.388139846712681e-17 1.0432623624801636 -0.13314791023731232
v -0.5216311812400818 0.903491735458374 -0.13314791023731232
v -0.903491735458374 0.5216311812400818 -0.13314791023731232
v -1.0432623624801636 1.2776279693425363e-16 -0.13314791023731232
v -0.903491735458374 -0.5216311812400818 -0.13314791023731232
v -0.5216311812400818 -0.903491735458374 -0.13314791023731232
v -1.9164419540138044e-16 -1.0432623624801636 -0.13314791023731232
v 0.5216311812400818 -0.903491735458374 -0.13314791023731232
v 0.903491735458374 -0.5216311812400818 -0.13314791023731232
v 1.0432623624801636 -2.5552559386850726e-16 -0.13314791023731232
v 1.1399999856948853 0 -3.429011054889572e-17
v 0.9872689843177795 0.5699999928474426 -3.429011054889572e-17
v 0.5699999928474426 0.9872689843177795 -3.429011054889572e-17
v 6.980486530339865e-17 1.1399999856948853 -3.429011054889572e-17
v -0.5699999928474426 0.9872689843177795 -3.429011054889572e-17
v -0.9872689843177795 0.5699999928474426 -3.429011054889572e-17
v -1.1399999856948853 1.396097306067973e-16 -3.429011054889572e-17
v -0.9872689843177795 -0.5699999928474426 -3.429011054889572e-17
v -0.5699999928474426 -0.9872689843177795 -3.429011054889572e-17
v -2.0941460252764084e-16 -1.1399999856948853 -3.429011054889572e-17
v 0.5699999928474426 -0.9872689843177795 -3.429011054889572e-17
v 0.9872689843177795 -0.5699999928474426 -3.429011054889572e-17
v 1.1399999856948853 -2.792194612135946e-16 -3.429011054889572e-17
vt 0 0
vt 0.0833333358168602 0
vt 0.1666666716337204 0
vt 0.25 0
vt 0.3333333432674408 0
vt 0.4166666567325592 0
vt 0.5 0
vt 0.5833333134651184 0
vt 0.6666666865348816 0
vt 0.75 0
vt 0.8333333134651184 0
vt 0.9166666865348816 0
vt 1 0
vt 0 0.20000000298023224
vt 0.0833333358168602 0.20000000298023224
vt 0.1666666716337204 0.20000000298023224
vt 0.25 0.20000000298023224
vt 0.3333333432674408 0.20000000298023224
vt 0.4166666567325592 0.20000000298023224
vt 0.5 0.20000000298023224
vt 0.5833333134651184 0.20000000298023224
vt 0.6666666865348816 0.20000000298023224
vt 0.75 0.20000000298023224
vt 0.8333333134651184 0.20000000298023224
vt 0.9166666865348816 0.20000000298023224
vt 1 0.20000000298023224
vt 0 0.4000000059604645
vt 0.0833333358168602 0.4000000059604645
vt 0.1666666716337204 0.4000000059604645
vt 0.25 0.4000000059604645
vt 0.3333333432674408 0.4000000059604645
vt 0.4166666567325592 0.4000000059604645
vt 0.5 0.4000000059604645
vt 0.5833333134651184 0.4000000059604645
vt 0.6666666865348816 0.4000000059604645
vt 0.75 0.4000000059604645
vt 0.8333333134651184 0.4000000059604645
vt 0.9166666865348816 0.4000000059604645
vt 1 0.4000000059604645
vt 0 0.6000000238418579
vt 0.0833333358168602 0.6000000238418579
vt 0.1666666716337204 0.6000000238418579
vt 0.25 0.6000000238418579
vt 0.3333333432674408 0.6000000238418579
vt 0.4166666567325592 0.6000000238418579
vt 0.5 0.6000000238418579
vt 0.5833333134651184 0.6000000238418579
vt 0.6666666865348816 0.6000000238418579
vt 0.75 0.6000000238418579
vt 0.8333333134651184 0.6000000238418579
vt 0.9166666865348816 0.6000000238418579
vt 1 0.6000000238418579
vt 0 0.800000011920929
vt 0.0833333358168602 0.800000011920929
vt 0.1666666716337204 0.800000011920929
vt 0.25 0.800000011920929
vt 0.3333333432674408 0.800000011920929
vt 0.4166666567325592 0.800000011920929
vt 0.5 0.800000011920929
vt 0.5833333134651184 0.800000011920929
vt 0.6666666865348816 0.800000011920929
vt 0.75 0.800000011920929
vt 0.8333333134651184 0.800000011920929
vt 0.9166666865348816 0.800000011920929
vt 1 0.800000011920929
vt 0 1
vt 0.0833333358168602 1
vt 0.1666666716337204 1
vt 0.25 1
vt 0.3333333432674408 1
vt 0.4166666567325592 1
vt 0.5 1
vt 0.5833333134651184 1
vt 0.6666666865348816 1
vt 0.75 1
vt 0.8333333134651184 1
vt 0.9166666865348816 1
vt 1 1
vn 1 0 0
vn 0.8660253998985324 0.5000000067305869 0
vn 0.5000000067305869 0.8660253998985324 0
vn 6.123234262925839e-17 1 0
vn -0.5000000067305869 0.8660253998985324 0
vn -0.8660253998985324 0.5000000067305869 0
vn -1 1.2246468525851679e-16 0
vn -0.8660253998985324 -0.5000000067305869 0
vn -0.5000000067305869 -0.8660253998985324 0
vn -1.8369701465288538e-16 -1 0
vn 0.5000000067305869 -0.8660253998985324 0
vn 0.8660253998985324 -0.5000000067305869 0
vn 1 -2.4492937051703357e-16 0
vn 0.3090169948284817 0 0.9510565161477913
vn 0.267616563598785 0.15450849759791035 0.9510565172783444
vn 0.15450849759791035 0.267616563598785 0.9510565172783444
vn 1.892183379232834e-17 0.3090169948284817 0.9510565161477913
vn -0.15450849759791035 0.267616563598785 0.9510565172783444
vn -0.267616563598785 0.15450849759791035 0.9510565172783444
vn -0.3090169948284817 3.784366758465668e-17 0.9510565161477913
vn -0.267616563598785 -0.15450849759791035 0.9510565172783444
vn -0.15450849759791035 -0.267616563598785 0.9510565172783444
vn -5.676549972262383e-17 -0.3090169948284817 0.9510565161477913
vn 0.15450849759791035 -0.267616563598785 0.9510565172783444
vn 0.267616563598785 -0.15450849759791035 0.9510565172783444
vn 0.3090169948284817 -7.568733516931335e-17 0.9510565161477913
vn -0.8090170011595983 0 0.5877852429542022
vn -0.7006292840523903 -0.40450849559501084 0.5877852357108809
vn -0.40450849559501084 -0.7006292840523903 0.5877852357108809
vn -4.953800384026539e-17 -0.8090170011595983 0.5877852429542022
vn 0.40450849559501084 -0.7006292840523903 0.5877852357108809
vn 0.7006292840523903 -0.40450849559501084 0.5877852357108809
vn 0.8090170011595983 -9.907600768053078e-17 0.5877852429542022
vn 0.7006292840523903 0.40450849559501084 0.5877852357108809
vn 0.40450849559501084 0.7006292840523903 0.5877852357108809
vn 1.4861400821207373e-16 0.8090170011595983 0.5877852429542022
vn -0.40450849559501084 0.7006292840523903 0.5877852357108809
vn -0.7006292840523903 0.40450849559501084 0.5877852357108809
vn -0.8090170011595983 1.9815201536106157e-16 0.5877852429542022
vn -0.8090170011595983 0 -0.5877852429542022
vn -0.7006292840523903 -0.40450849559501084 -0.5877852357108809
vn -0.40450849559501084 -0.7006292840523903 -0.5877852357108809
vn -4.953800384026539e-17 -0.8090170011595983 -0.5877852429542022
vn 0.40450849559501084 -0.7006292840523903 -0.5877852357108809
vn 0.7006292840523903 -0.40450849559501084 -0.5877852357108809
vn 0.8090170011595983 -9.907600768053078e-17 -0.5877852429542022
vn 0.7006292840523903 0.40450849559501084 -0.5877852357108809
vn 0.40450849559501084 0.7006292840523903 -0.5877852357108809
vn 1.4861400821207373e-16 0.8090170011595983 -0.5877852429542022
vn -0.40450849559501084 0.7006292840523903 -0.5877852357108809
vn -0.7006292840523903 0.40450849559501084 -0.5877852357108809
vn -0.8090170011595983 1.9815201536106157e-16 -0.5877852429542022
vn 0.3090169948284817 0 -0.9510565161477913
vn 0.267616563598785 0.15450849759791035 -0.9510565172783444
vn 0.15450849759791035 0.267616563598785 -0.9510565172783444
vn 1.892183379232834e-17 0.3090169948284817 -0.9510565161477913
vn -0.15450849759791035 0.267616563598785 -0.9510565172783444
vn -0.267616563598785 0.15450849759791035 -0.9510565172783444
vn -0.3090169948284817 3.784366758465668e-17 -0.9510565161477913
vn -0.267616563598785 -0.15450849759791035 -0.9510565172783444
vn -0.15450849759791035 -0.267616563598785 -0.9510565172783444
vn -5.676549972262383e-17 -0.3090169948284817 -0.9510565161477913
vn 0.15450849759791035 -0.267616563598785 -0.9510565172783444
vn 0.267616563598785 -0.15450849759791035 -0.9510565172783444
vn 0.3090169948284817 -7.568733516931335e-17 -0.9510565161477913
vn 1 0 -2.4492937051703357e-16
vn 0.8660253998985324 0.5000000067305869 -2.449293738140704e-16
vn 0.5000000067305869 0.8660253998985324 -2.449293738140704e-16
vn 6.123234262925839e-17 1 -2.4492937051703357e-16
vn -0.5000000067305869 0.8660253998985324 -2.449293738140704e-16
vn -0.8660253998985324 0.5000000067305869 -2.449293738140704e-16
vn -1 1.2246468525851679e-16 -2.4492937051703357e-16
vn -0.8660253998985324 -0.5000000067305869 -2.449293738140704e-16
vn -0.5000000067305869 -0.8660253998985324 -2.449293738140704e-16
vn -1.8369701465288538e-16 -1 -2.4492937051703357e-16
vn 0.5000000067305869 -0.8660253998985324 -2.449293738140704e-16
vn 0.8660253998985324 -0.5000000067305869 -2.449293738140704e-16
vn 1 -2.4492937051703357e-16 -2.4492937051703357e-16
f 14/14/14 1/1/1 15/15/15
f 1/1/1 2/2/2 15/15/15
f 15/15/15 2/2/2 16/16/16
f 2/2/2 3/3/3 16/16/16
f 16/16/16 3/3/3 17/17/17
f 3/3/3 4/4/4 17/17/17
f 17/17/17 4/4/4 18/18/18
f 4/4/4 5/5/5 18/18/18
f 18/18/18 5/5/5 19/19/19
f 5/5/5 6/6/6 19/19/19
f 19/19/19 6/6/6 20/20/20
f 6/6/6 7/7/7 20/20/20
f 20/20/20 7/7/7 21/21/21
f 7/7/7 8/8/8 21/21/21
f 21/21/21 8/8/8 22/22/22
f 8/8/8 9/9/9 22/22/22
f 22/22/22 9/9/9 23/23/23
f 9/9/9 10/10/10 23/23/23
f 23/23/23 10/10/10 24/24/24
f 10/10/10 11/11/11 24/24/24
f 24/24/24 11/11/11 25/25/25
f 11/11/11 12/12/12 25/25/25
f 25/25/25 12/12/12 26/26/26
f 12/12/12 13/13/13 26/26/26
f 27/27/27 14/14/14 28/28/28
f 14/14/14 15/15/15 28/28/28
f 28/28/28 15/15/15 29/29/29
f 15/15/15 16/16/16 29/29/29
f 29/29/29 16/16/16 30/30/30
f 16/16/16 17/17/17 30/30/30
f 30/30/30 17/17/17 31/31/31
f 17/17/17 18/18/18 31/31/31
f 31/31/31 18/18/18 32/32/32
f 18/18/18 19/19/19 32/32/32
f 32/32/32 19/19/19 33/33/33
f 19/19/19 20/20/20 33/33/33
f 33/33/33 20/20/20 34/34/34
f 20/20/20 21/21/21 34/34/34
f 34/34/34 21/21/21 35/35/35
f 21/21/21 22/22/22 35/35/35
f 35/35/35 22/22/22 36/36/36
f 22/22/22 23/23/23 36/36/36
f 36/36/36 23/23/23 37/37/37
f 23/23/23 24/24/24 37/37/37
f 37/37/37 24/24/24 38/38/38
f 24/24/24 25/25/25 38/38/38
f 38/38/38 25/25/25 39/39/39
f 25/25/25 26/26/26 39/39/39
f 40/40/40 27/27/27 41/41/41
f 27/27/27 28/28/28 41/41/41
f 41/41/41 28/28/28 42/42/42
f 28/28/28 29/29/29 42/42/42
f 42/42/42 29/29/29 43/43/43
f 29/29/29 30/30/30 43/43/43
f 43/43/43 30/30/30 44/44/44
f 30/30/30 31/31/31 44/44/44
f 44/44/44 31/31/31 45/45/45
f 31/31/31 32/32/32 45/45/45
f 45/45/45 32/32/32 46/46/46
f 32/32/32 33/33/33 46/46/46
f 46/46/46 33/33/33 47/47/47
f 33/33/33 34/34/34 47/47/47
f 47/47/47 34/34/34 48/48/48
f 34/34/34 35/35/35 48/48/48
f 48/48/48 35/35/35 49/49/49
f 35/35/35 36/36/36 49/49/49
f 49/49/49 36/36/36 50/50/50
f 36/36/36 37/37/37 50/50/50
f 50/50/50 37/37/37 51/51/51
f 37/37/37 38/38/38 51/51/51
f 51/51/51 38/38/38 52/52/52
f 38/38/38 39/39/39 52/52/52
f 53/53/53 40/40/40 54/54/54
f 40/40/40 41/41/41 54/54/54
f 54/54/54 41/41/41 55/55/55
f 41/41/41 42/42/42 55/55/55
f 55/55/55 42/42/42 56/56/56
f 42/42/42 43/43/43 56/56/56
f 56/56/56 43/43/43 57/57/57
f 43/43/43 44/44/44 57/57/57
f 57/57/57 44/44/44 58/58/58
f 44/44/44 45/45/45 58/58/58
f 58/58/58 45/45/45 59/59/59
f 45/45/45 46/46/46 59/59/59
f 59/59/59 46/46/46 60/60/60
f 46/46/46 47/47/47 60/60/60
f 60/60/60 47/47/47 61/61/61
f 47/47/47 48/48/48 61/61/61
f 61/61/61 48/48/48 62/62/62
f 48/48/48 49/49/49 62/62/62
f 62/62/62 49/49/49 63/63/63
f 49/49/49 50/50/50 63/63/63
f 63/63/63 50/50/50 64/64/64
f 50/50/50 51/51/51 64/64/64
f 64/64/64 51/51/51 65/65/65
f 51/51/51 52/52/52 65/65/65
f 66/66/66 53/53/53 67/67/67
f 53/53/53 54/54/54 67/67/67
f 67/67/67 54/54/54 68/68/68
f 54/54/54 55/55/55 68/68/68
f 68/68/68 55/55/55 69/69/69
f 55/55/55 56/56/56 69/69/69
f 69/69/69 56/56/56 70/70/70
f 56/56/56 57/57/57 70/70/70
f 70/70/70 57/57/57 71/71/71
f 57/57/57 58/58/58 71/71/71
f 71/71/71 58/58/58 72/72/72
f 58/58/58 59/59/59 72/72/72
f 72/72/72 59/59/59 73/73/73
f 59/59/59 60/60/60 73/73/73
f 73/73/73 60/60/60 74/74/74
f 60/60/60 61/61/61 74/74/74
f 74/74/74 61/61/61 75/75/75
f 61/61/61 62/62/62 75/75/75
f 75/75/75 62/62/62 76/76/76
f 62/62/62 63/63/63 76/76/76
f 76/76/76 63/63/63 77/77/77
f 63/63/63 64/64/64 77/77/77
f 77/77/77 64/64/64 78/78/78
f 64/64/64 65/65/65 78/78/78
