o Cylinder
v 0 1 0.019999999552965164
v 0.019999999552965164 1 1.224646790546622e-18
v 2.449293581093244e-18 1 -0.019999999552965164
v -0.019999999552965164 1 -3.673940475037442e-18
v -4.898587162186488e-18 1 0.019999999552965164
v 0 0 0.10000000149011612
v 0.10000000149011612 0 6.123233849335533e-18
v 1.2246467698671066e-17 0 -0.10000000149011612
v -0.10000000149011612 0 -1.8369702788777518e-17
v -2.4492935397342132e-17 0 0.10000000149011612
v 0 1 0
v 0 1 0
v 0 1 0
v 0 1 0
v 0 1 0.019999999552965164
v 0.019999999552965164 1 1.224646790546622e-18
v 2.449293581093244e-18 1 -0.019999999552965164
v -0.019999999552965164 1 -3.673940475037442e-18
v -4.898587162186488e-18 1 0.019999999552965164
v 0 0 0
v 0 0 0
v 0 0 0
v 0 0 0
v 0 0 0.10000000149011612
v 0.10000000149011612 0 6.123233849335533e-18
v 1.2246467698671066e-17 0 -0.10000000149011612
v -0.10000000149011612 0 -1.8369702788777518e-17
v -2.4492935397342132e-17 0 0.10000000149011612
vt 0 1
vt 0.25 1
vt 0.5 1
vt 0.75 1
vt 1 1
vt 0 0
vt 0.25 0
vt 0.5 0
vt 0.75 0
vt 1 0
vt 0.5 0.5
vt 0.5 0.5
vt 0.5 0.5
vt 0.5 0.5
vt 1 0.5
vt 0.5 1
vt 0 0.5
vt 0.5 0
vt 1 0.5
vt 0.5 0.5
vt 0.5 0.5
vt 0.5 0.5
vt 0.5 0.5
vt 1 0.5
vt 0.5 0
vt 0 0.5
vt 0.5 1
vt 1 0.5
vn 0 0.07974522672481013 0.9968152781807713
vn 0.9968152781807713 0.07974522672481013 6.103733400003198e-17
vn 1.2207466800006396e-16 0.07974522672481013 -0.9968152781807713
vn -0.9968152781807713 0.07974522672481013 -1.8311199538265095e-16
vn -2.441493360001279e-16 0.07974522672481013 0.9968152781807713
vn 0 0.07974522672481013 0.9968152781807713
vn 0.9968152781807713 0.07974522672481013 6.103733400003198e-17
vn 1.2207466800006396e-16 0.07974522672481013 -0.9968152781807713
vn -0.9968152781807713 0.07974522672481013 -1.8311199538265095e-16
vn -2.441493360001279e-16 0.07974522672481013 0.9968152781807713
vn 0 1 0
vn 0 1 0
vn 0 1 0
vn 0 1 0
vn 0 1 0
vn 0 1 0
vn 0 1 0
vn 0 1 0
vn 0 1 0
vn 0 -1 0
vn 0 -1 0
vn 0 -1 0
vn 0 -1 0
vn 0 -1 0
vn 0 -1 0
vn 0 -1 0
vn 0 -1 0
vn 0 -1 0
f 1/1/1 6/6/6 2/2/2
f 6/6/6 7/7/7 2/2/2
f 2/2/2 7/7/7 3/3/3
f 7/7/7 8/8/8 3/3/3
f 3/3/3 8/8/8 4/4/4
f 8/8/8 9/9/9 4/4/4
f 4/4/4 9/9/9 5/5/5
f 9/9/9 10/10/10 5/5/5
f 15/15/15 16/16/16 11/11/11
f 16/16/16 17/17/17 12/12/12
f 17/17/17 18/18/18 13/13/13
f 18/18/18 19/19/19 14/14/14
f 25/25/25 24/24/24 20/20/20
f 26/26/26 25/25/25 21/21/21
f 27/27/27 26/26/26 22/22/22
f 28/28/28 27/27/27 23/23/23
